{"glyphs":{"J":{"ha":833,"x_min":0,"x_max":0,"o":"m 179 969 l 710 969 l 710 271 b 688 153 710 228 701 188 b 622 61 672 117 650 86 b 519 4 593 36 560 17 b 386 -17 479 -10 435 -17 l 386 -17 b 157 58 288 -17 211 8 b 53 253 103 107 68 172 l 53 253 l 250 293 b 293 192 257 251 272 218 b 386 153 314 165 344 153 l 386 153 b 469 188 421 153 449 164 b 499 292 489 210 499 244 l 499 292 l 499 799 l 179 799 l 179 969 z "},"Y":{"ha":833,"x_min":0,"x_max":0,"o":"m 521 0 l 313 0 l 313 343 l 6 969 l 238 969 l 340 744 l 415 554 l 426 554 l 501 744 l 604 969 l 828 969 l 521 343 l 521 0 z "},"N":{"ha":833,"x_min":0,"x_max":0,"o":"m 499 0 l 278 644 l 263 644 l 263 0 l 85 0 l 85 969 l 335 969 l 556 325 l 571 325 l 571 969 l 749 969 l 749 0 l 499 0 z "},"X":{"ha":833,"x_min":0,"x_max":0,"o":"m 549 499 l 821 0 l 583 0 l 483 193 l 415 346 l 403 346 l 333 193 l 231 0 l 13 0 l 285 501 l 31 969 l 268 969 l 347 815 l 418 660 l 429 660 l 501 815 l 585 969 l 803 969 l 549 499 z "},"I":{"ha":833,"x_min":0,"x_max":0,"o":"m 729 0 l 104 0 l 104 154 l 313 154 l 313 815 l 104 815 l 104 969 l 729 969 l 729 815 l 521 815 l 521 154 l 729 154 l 729 0 z "},"O":{"ha":833,"x_min":0,"x_max":0,"o":"m 417 -17 l 417 -17 b 131 115 288 -17 192 28 b 38 485 68 203 38 326 l 38 485 b 131 854 38 643 68 767 b 417 986 192 942 288 986 l 417 986 b 704 854 546 986 642 942 b 796 485 765 767 796 643 l 796 485 b 704 115 796 326 765 203 b 417 -17 642 28 546 -17 z m 417 151 l 417 151 b 540 218 476 151 517 174 b 574 401 563 261 574 322 l 574 401 l 574 569 b 540 753 574 647 563 708 b 417 818 517 796 476 818 l 417 818 b 294 753 357 818 317 796 b 260 569 271 708 260 647 l 260 569 l 260 400 b 294 218 260 322 271 261 b 417 151 317 174 357 151 z "},"S":{"ha":833,"x_min":0,"x_max":0,"o":"m 401 -17 l 401 -17 b 189 24 319 -17 249 -3 b 43 133 129 50 81 88 l 43 133 l 164 267 b 281 181 199 228 238 199 b 408 153 322 163 365 153 l 408 153 b 522 186 458 153 496 164 b 561 282 549 208 561 240 l 561 282 b 532 360 561 317 551 342 b 431 397 511 378 478 390 l 431 397 l 329 414 b 140 511 242 429 179 461 b 82 692 101 560 82 621 l 82 692 b 174 910 82 785 113 858 b 431 986 235 961 321 986 l 431 986 b 626 951 506 986 571 975 b 761 857 682 928 726 897 l 761 857 l 643 725 b 551 793 617 754 586 776 b 432 817 517 808 476 817 l 432 817 b 292 701 339 817 292 778 l 292 701 b 324 626 292 668 303 643 b 425 589 344 610 378 597 l 425 589 l 526 571 b 708 482 606 557 665 528 b 772 299 751 436 772 375 l 772 299 b 749 174 772 253 764 211 b 678 74 733 135 710 101 b 563 7 646 44 607 22 b 401 -17 517 -8 463 -17 z "},"C":{"ha":833,"x_min":0,"x_max":0,"o":"m 439 -17 l 439 -17 b 151 115 310 -17 214 28 b 57 485 89 203 57 325 l 57 485 b 151 856 57 644 89 768 b 439 986 214 943 310 986 l 439 986 b 572 967 489 986 533 979 b 671 910 610 953 643 933 b 740 822 699 886 722 857 b 782 707 758 788 772 750 l 782 707 l 588 660 b 568 724 582 683 575 704 b 540 774 561 743 551 760 b 497 807 528 788 514 799 b 435 818 479 814 458 818 l 435 818 b 315 753 378 818 339 796 b 279 569 292 708 279 647 l 279 569 l 279 400 b 315 218 279 322 292 261 b 435 151 339 174 378 151 l 435 151 b 540 196 483 151 518 167 b 588 310 561 225 578 264 l 588 310 l 782 263 b 740 147 772 219 758 182 b 671 60 722 113 699 83 b 572 3 643 35 610 15 b 439 -17 533 -10 489 -17 z "},"R":{"ha":833,"x_min":0,"x_max":0,"o":"m 311 360 l 311 0 l 106 0 l 106 969 l 481 969 b 607 949 528 969 569 963 b 701 886 644 933 675 913 b 758 789 726 860 746 826 b 778 661 771 751 778 708 l 778 661 b 733 485 778 593 763 533 b 607 388 704 436 661 403 l 607 388 l 797 0 l 569 0 l 407 360 l 311 360 z m 311 521 l 431 521 b 533 549 479 521 514 531 b 561 640 551 567 561 597 l 561 640 l 561 682 b 533 774 561 725 551 756 b 431 801 514 792 479 801 l 431 801 l 311 801 l 311 521 z "},"L":{"ha":833,"x_min":0,"x_max":0,"o":"m 754 0 l 128 0 l 128 969 l 338 969 l 338 171 l 754 171 l 754 0 z "}," ":{"ha":833,"x_min":0,"x_max":0,"o":""},"D":{"ha":833,"x_min":0,"x_max":0,"o":"m 89 0 l 89 969 l 401 969 b 692 844 532 969 629 928 b 786 485 754 761 786 642 l 786 485 b 692 125 786 328 754 208 b 401 0 629 42 532 0 l 401 0 l 89 0 z m 294 164 l 388 164 b 524 224 450 164 494 183 b 567 397 553 264 567 321 l 567 397 l 567 574 b 524 746 567 649 553 706 b 388 806 494 786 450 806 l 388 806 l 294 806 l 294 164 z "},"W":{"ha":833,"x_min":0,"x_max":0,"o":"m 339 0 l 75 0 l 15 969 l 194 969 l 222 389 l 231 206 l 243 206 l 326 758 l 514 758 l 597 206 l 610 206 l 618 383 l 646 969 l 818 969 l 758 0 l 494 0 l 424 535 l 410 535 l 339 0 z "},"E":{"ha":833,"x_min":0,"x_max":0,"o":"m 731 0 l 111 0 l 111 969 l 731 969 l 731 799 l 319 799 l 319 576 l 717 576 l 717 406 l 319 406 l 319 171 l 731 171 l 731 0 z "},"A":{"ha":833,"x_min":0,"x_max":0,"o":"m 826 0 l 604 0 l 543 233 l 278 233 l 218 0 l 7 0 l 269 969 l 564 969 l 826 0 z m 511 401 l 417 768 l 406 768 l 311 401 l 511 401 z "},"G":{"ha":833,"x_min":0,"x_max":0,"o":"m 571 0 l 571 138 l 558 138 b 528 79 550 117 540 97 b 483 31 515 61 501 44 b 422 -4 465 15 446 4 b 342 -17 399 -12 371 -17 l 342 -17 b 217 17 294 -17 253 -6 b 124 114 179 39 149 71 b 68 269 99 157 79 208 b 49 476 56 331 49 400 l 49 476 b 139 856 49 642 79 768 b 418 986 199 943 292 986 l 418 986 b 550 967 468 986 513 979 b 649 910 588 953 621 933 b 715 821 675 885 697 856 b 757 707 733 786 747 749 l 757 707 l 563 660 b 544 719 557 681 551 700 b 517 769 538 738 528 754 b 475 806 506 785 492 796 b 414 818 458 814 438 818 l 414 818 b 303 753 361 818 324 796 b 269 569 281 710 269 649 l 269 569 l 269 411 b 306 222 269 332 281 269 b 431 151 329 175 371 151 l 431 151 b 536 193 478 151 513 165 b 571 300 560 221 571 257 l 571 300 l 571 371 l 406 371 l 406 518 l 757 518 l 757 0 l 571 0 z "},"T":{"ha":833,"x_min":0,"x_max":0,"o":"m 800 799 l 521 799 l 521 0 l 313 0 l 313 799 l 33 799 l 33 969 l 800 969 l 800 799 z "},"H":{"ha":833,"x_min":0,"x_max":0,"o":"m 539 0 l 539 406 l 294 406 l 294 0 l 85 0 l 85 969 l 294 969 l 294 576 l 539 576 l 539 969 l 749 969 l 749 0 l 539 0 z "},"U":{"ha":833,"x_min":0,"x_max":0,"o":"m 76 969 l 285 969 l 285 356 b 289 272 285 325 286 297 b 306 207 290 246 296 225 b 344 167 314 189 326 175 b 417 151 363 157 386 151 l 417 151 b 489 167 447 151 471 156 b 529 207 507 176 519 189 b 546 272 538 225 543 246 b 549 356 547 297 549 325 l 549 356 l 549 969 l 757 969 l 757 383 b 744 208 757 317 753 258 b 693 83 735 158 718 117 b 589 8 668 50 633 25 b 417 -17 544 -8 488 -17 l 417 -17 b 244 8 346 -17 289 -8 b 140 83 200 25 165 50 b 90 208 115 117 99 158 b 76 383 81 258 76 317 l 76 383 l 76 969 z "},"B":{"ha":833,"x_min":0,"x_max":0,"o":"m 107 0 l 107 969 l 447 969 b 667 900 543 969 615 946 b 742 711 717 854 742 790 l 742 711 b 701 579 742 656 728 611 b 583 507 674 546 635 522 l 583 507 l 583 499 b 724 421 643 483 690 458 b 772 267 756 383 772 332 l 772 267 b 696 72 772 185 747 121 b 479 0 644 24 572 0 l 479 0 l 107 0 z m 310 146 l 415 146 b 525 171 465 146 501 154 b 560 263 549 188 560 218 l 560 263 l 560 303 b 525 394 560 347 549 378 b 415 419 501 411 465 419 l 415 419 l 310 419 l 310 146 z m 310 558 l 389 558 b 496 583 438 558 474 567 b 529 671 518 599 529 628 l 529 671 l 529 713 b 496 800 529 756 518 785 b 389 824 474 815 438 824 l 389 824 l 310 824 l 310 558 z "},"P":{"ha":833,"x_min":0,"x_max":0,"o":"m 315 0 l 106 0 l 106 969 l 481 969 b 607 949 528 969 569 963 b 701 886 644 933 675 913 b 758 789 726 860 746 826 b 778 661 771 751 778 708 l 778 661 b 758 533 778 614 771 571 b 701 436 746 496 726 463 b 607 375 675 410 644 389 b 481 353 569 360 528 353 l 481 353 l 315 353 l 315 0 z m 315 801 l 315 521 l 428 521 b 531 549 476 521 511 531 b 558 640 549 567 558 597 l 558 640 l 558 682 b 531 774 558 725 549 756 b 428 801 511 792 476 801 l 428 801 l 315 801 z "}}}
